<svg xmlns="http://www.w3.org/2000/svg" width="31.039" height="28.041" viewBox="0 0 31.039 28.041"><defs><style>.a{fill:#5d0577;}</style></defs><path class="a" d="M13.166,72.989l-2.858,2.6a.39.39,0,0,1-.513,0L3.727,70.072a.309.309,0,0,1,0-.466L11.7,62.36a.381.381,0,0,1,.256-.1h0a.382.382,0,0,1,.256.1l5.223,4.747L20,64.778l-5.223-4.746a4.279,4.279,0,0,0-5.637,0L1.165,67.278a3.4,3.4,0,0,0,0,5.122l6.068,5.514a4.28,4.28,0,0,0,5.636,0l4.457-4.05C15.982,74.539,14.8,74.224,13.166,72.989Z" transform="translate(0.001 -58.973)"/><path class="a" d="M83.441,5.984l2.858-2.6a.39.39,0,0,1,.513,0L92.88,8.9a.309.309,0,0,1,0,.466l-7.975,7.246a.381.381,0,0,1-.256.1h0a.382.382,0,0,1-.256-.1l-5.223-4.746-2.562,2.328,5.223,4.746a4.279,4.279,0,0,0,5.637,0l7.975-7.246a3.4,3.4,0,0,0,0-5.122L89.374,1.059a4.279,4.279,0,0,0-5.636,0L79.28,5.109C80.625,4.434,81.808,4.748,83.441,5.984Z" transform="translate(-65.568 8.041)"/></svg>