<svg xmlns="http://www.w3.org/2000/svg" width="178" height="172.7" viewBox="0 0 178 172.7"><defs><style>.a{fill:#46b13a;}.b{fill:#127515;}.c{fill:#3ecbc6;}.d{fill:rgba(255,255,255,0.21);}.e{fill:#6d4f28;}.f,.h,.k{fill:none;}.f,.h{stroke:#ffe0a1;stroke-linecap:round;}.f{stroke-width:3px;stroke-dasharray:10;}.g{fill:#382712;}.h{stroke-dasharray:5;}.i{fill:#989898;}.j{stroke:none;}</style></defs><rect class="a" width="47" height="82" transform="matrix(0.899, -0.438, 0.438, 0.899, 24.405, 50.151)"/><path class="b" d="M0,0H47V9.834H9.767L0,25Z" transform="matrix(0.899, -0.438, 0.438, 0.899, 24.405, 50.151)"/><g transform="matrix(0.921, -0.391, 0.391, 0.921, -202.387, -441.622)"><rect class="c" width="100" height="54" rx="7" transform="translate(115.158 529.551) rotate(90)"/><path class="d" d="M0,0H22a7,7,0,0,1,7,7V95a6,6,0,0,1-6,6H0L12.3,53.714Z" transform="translate(87 529)"/></g><rect class="e" width="175" height="110" rx="9" transform="translate(0 62.7)"/><g class="f" transform="translate(15 74.7)"><rect class="j" width="146" height="87"/><rect class="k" x="1.5" y="1.5" width="143" height="84"/></g><rect class="g" width="59" height="27" rx="10" transform="translate(119 104.7)"/><g class="h" transform="translate(123 106.7)"><rect class="j" width="52" height="23" rx="10"/><rect class="k" x="0.5" y="0.5" width="51" height="22" rx="9.5"/></g><circle class="i" cx="7.5" cy="7.5" r="7.5" transform="translate(127 110.7)"/></svg>